<svg
  xmlns="http://www.w3.org/2000/svg"
  xmlns:xlink="http://www.w3.org/1999/xlink"
  version="1.1"
  width="253"
  height="82"
  viewBox="0 0 253 82"
  xml:space="preserve">
  <desc>Created with Fabric.js 3.6.6</desc>
  <g transform="matrix(4.5 0 0 4.5 126.18 41.07)">
    <path
      style="stroke: none; stroke-width: 1; stroke-dasharray: none; stroke-linecap: butt; stroke-dashoffset: 0; stroke-linejoin: miter; stroke-miterlimit: 4; fill: rgb(0,0,0); fill-rule: nonzero; opacity: 1;"
      transform=" translate(-32, -48.07)"
      d="M 56.9164 40.1215 C 56.5576 39.9523 56.1284 40.0019 55.8153 40.2535 C 55.5064 40.5052 55.3675 40.9116 55.4628 41.2975 C 55.6826 42.1949 55.2701 45.1183 53.827 46.1973 C 51.0527 48.2707 47.1526 47.1793 44.3452 43.5318 C 41.9587 40.4331 39.8476 38.8197 37.1294 39.0054 C 35.4479 39.1147 33.1717 41.4706 32.0002 42.8116 C 30.8287 41.4706 28.6294 39.1147 26.9459 39.0054 C 24.2152 38.8238 22.0395 40.4331 19.6531 43.5318 C 16.8478 47.1773 12.9497 48.2728 10.1714 46.1973 C 8.72831 45.1204 8.31363 42.1949 8.53548 41.2975 C 8.63086 40.9096 8.49194 40.5052 8.183 40.2535 C 7.87199 40.0019 7.44486 39.9523 7.08203 40.1215 C 5.26572 40.9819 2.7175 44.5882 4.74944 49.4137 C 6.08887 52.597 8.51889 54.9346 11.7762 56.1724 C 15.7489 57.6826 20.7976 57.4 24.9507 55.4359 C 27.9881 53.9979 30.4348 51.3436 32.0002 49.4497 C 33.5656 51.3436 36.0123 53.9979 39.0498 55.4359 C 43.0825 57.3442 48.0898 57.7445 52.2242 56.1724 C 55.4794 54.9346 57.9095 52.597 59.2509 49.4137 C 61.2828 44.5882 58.7326 40.9797 56.9164 40.1215 Z"
      stroke-linecap="round"
    />
  </g>
</svg>